<svg focusable="false" viewBox="0 0 44 44" xmlns="http://www.w3.org/2000/svg" xmlns:xlink="http://www.w3.org/1999/xlink">
  <defs>
    <path d="M15.414 1.586l9 9 9 9c.39.392.586.904.586 1.414 0 .512-.196 1.024-.586 1.414l-9 9-9 9c-.392.39-.904.586-1.416.586-.512 0-1.024-.196-1.414-.586-.39-.392-.584-.904-.584-1.416 0-.512.196-1.024.586-1.414l8.292-8.292 8.294-8.292-8.294-8.292-8.292-8.294c-.392-.39-.586-.902-.586-1.414 0-.512.196-1.024.586-1.414.39-.39.902-.586 1.414-.586.512 0 1.024.196 1.414.586z" id="b"/>
    <filter x="-36.4%" y="-15%" width="172.7%" height="140%" filterUnits="objectBoundingBox" id="a">
      <feMorphology radius=".5" operator="dilate" in="SourceAlpha" result="shadowSpreadOuter1"/>
      <feOffset in="shadowSpreadOuter1" result="shadowOffsetOuter1"/>
      <feColorMatrix values="0 0 0 0 0 0 0 0 0 0 0 0 0 0 0 0 0 0 0.05 0" in="shadowOffsetOuter1" result="shadowMatrixOuter1"/>
      <feOffset dy="2" in="SourceAlpha" result="shadowOffsetOuter2"/>
      <feGaussianBlur stdDeviation="2" in="shadowOffsetOuter2" result="shadowBlurOuter2"/>
      <feColorMatrix values="0 0 0 0 0 0 0 0 0 0 0 0 0 0 0 0 0 0 0.15 0" in="shadowBlurOuter2" result="shadowMatrixOuter2"/>
      <feMerge>
        <feMergeNode in="shadowMatrixOuter1"/>
        <feMergeNode in="shadowMatrixOuter2"/>
      </feMerge>
    </filter>
  </defs>
  <g fill="none">
    <g fill-rule="nonzero">
      <use fill="#000" filter="url(#a)" xlink:href="#b"/>
      <use fill="#fff" xlink:href="#b"/>
    </g>
    <path d="M44 44h-44v-44h44z"/>
  </g>
</svg>